<svg width="117" height="30" viewBox="0 0 117 30" fill="none" xmlns="http://www.w3.org/2000/svg">
<g clip-path="url(#clip0_2513_12518)">
<path d="M21.7961 13.1394C20.454 10.8144 18.5373 9.45604 9.99826 9.79833C5.98815 9.95915 4.25728 6.98421 6.73404 4.98777C9.52939 2.73426 13.7891 3.68023 15.6906 4.75275C15.222 3.77097 14.6603 2.98233 13.931 2.28092C12.381 0.789827 10.5251 0.0228791 8.44445 0.267565C5.70145 0.823186 3.11621 2.27521 1.1947 4.6205L1.22388 4.64404C-1.33731 7.89857 0.310065 12.7019 4.4099 13.7622L4.41133 13.7574C6.96917 14.4224 10.474 14.2775 13.1933 14.2425C17.1182 14.1917 17.8721 18.4066 14.4358 19.9025C11.8424 21.0313 8.42877 20.9034 6.48176 19.8347C6.87375 20.7374 7.38149 21.631 8.06048 22.239C10.16 24.1193 11.4795 24.503 13.5696 24.2499C13.0682 24.353 12.5566 24.4267 12.037 24.4693C16.3377 24.1331 20.5343 21.5043 21.9754 17.7974C22.4977 16.4545 22.7333 14.7632 21.7961 13.1394Z" fill="url(#paint0_linear_2513_12518)"/>
<path d="M21.7961 13.1394C20.454 10.8144 18.5373 9.45604 9.99826 9.79833C5.98815 9.95915 4.25728 6.98421 6.73404 4.98777C9.52939 2.73426 13.7891 3.68023 15.6906 4.75275C15.222 3.77097 14.6603 2.98233 13.931 2.28092C12.381 0.789827 10.5251 0.0228791 8.44445 0.267565C5.70145 0.823186 3.11621 2.27521 1.1947 4.6205L1.22388 4.64404C-1.33731 7.89857 0.310065 12.7019 4.4099 13.7622L4.41133 13.7574C6.96917 14.4224 10.474 14.2775 13.1933 14.2425C17.1182 14.1917 17.8721 18.4066 14.4358 19.9025C11.8424 21.0313 8.42877 20.9034 6.48176 19.8347C6.87375 20.7374 7.38149 21.631 8.06048 22.239C10.16 24.1193 11.4795 24.503 13.5696 24.2499C13.0682 24.353 12.5566 24.4267 12.037 24.4693C16.3377 24.1331 20.5343 21.5043 21.9754 17.7974C22.4977 16.4545 22.7333 14.7632 21.7961 13.1394Z" fill="url(#paint1_linear_2513_12518)"/>
<path d="M8.42188 0.268829C10.5118 0.0158615 12.3753 0.783393 13.9309 2.27974C15.2091 3.50935 15.9731 5.00594 16.6221 7.34315C17.0618 8.92568 18.5066 9.27093 19.3219 9.23696C21.0318 9.16559 22.1867 7.77668 21.7805 6.27507C21.1442 3.92175 15.7128 -1.23008 8.42188 0.268829Z" fill="url(#paint2_linear_2513_12518)"/>
<path d="M8.42188 0.268829C10.5118 0.0158615 12.3753 0.783393 13.9309 2.27974C15.2091 3.50935 15.9731 5.00594 16.6221 7.34315C17.0618 8.92568 18.5066 9.27093 19.3219 9.23696C21.0318 9.16559 22.1867 7.77668 21.7805 6.27507C21.1442 3.92175 15.7128 -1.23008 8.42188 0.268829Z" fill="url(#paint3_linear_2513_12518)"/>
<path d="M8.42188 0.268829C10.5118 0.0158615 12.3753 0.783393 13.9309 2.27974C15.2091 3.50935 15.9731 5.00594 16.6221 7.34315C17.0618 8.92568 18.5066 9.27093 19.3219 9.23696C21.0318 9.16559 22.1867 7.77668 21.7805 6.27507C21.1442 3.92175 15.7128 -1.23008 8.42188 0.268829Z" fill="url(#paint4_linear_2513_12518)"/>
<path d="M21.796 13.1394C20.4539 10.8144 18.5371 9.45604 9.99813 9.79833C5.98797 9.95915 4.25712 6.9842 6.73387 4.98777C9.52926 2.73426 13.7889 3.68023 15.6904 4.75275C15.2218 3.77097 14.6601 2.98233 13.9308 2.28092C12.3809 0.789827 10.525 0.0228791 8.44428 0.267565C5.70128 0.823186 3.11606 2.27521 1.19454 4.6205L1.22372 4.64404C-0.613353 6.97859 -0.284906 10.1098 1.56078 12.0853C1.6585 12.1844 4.37723 14.8622 12.219 12.4874C19.7828 10.1969 21.4905 12.647 21.796 13.1394Z" fill="url(#paint5_linear_2513_12518)"/>
<path d="M21.796 13.1394C20.4539 10.8144 18.5371 9.45604 9.99813 9.79833C5.98797 9.95915 4.25712 6.9842 6.73387 4.98777C9.52926 2.73426 13.7889 3.68023 15.6904 4.75275C15.2218 3.77097 14.6601 2.98233 13.9308 2.28092C12.3809 0.789827 10.525 0.0228791 8.44428 0.267565C5.70128 0.823186 3.11606 2.27521 1.19454 4.6205L1.22372 4.64404C-0.613353 6.97859 -0.284906 10.1098 1.56078 12.0853C1.6585 12.1844 4.37723 14.8622 12.219 12.4874C19.7828 10.1969 21.4905 12.647 21.796 13.1394Z" fill="url(#paint6_linear_2513_12518)"/>
<path d="M21.796 13.1394C20.4539 10.8144 18.5371 9.45604 9.99813 9.79833C5.98797 9.95915 4.25712 6.9842 6.73387 4.98777C9.52926 2.73426 13.7889 3.68023 15.6904 4.75275C15.2218 3.77097 14.6601 2.98233 13.9308 2.28092C12.3809 0.789827 10.525 0.0228791 8.44428 0.267565C5.70128 0.823186 3.11606 2.27521 1.19454 4.6205L1.22372 4.64404C-0.613353 6.97859 -0.284906 10.1098 1.56078 12.0853C1.6585 12.1844 4.37723 14.8622 12.219 12.4874C19.7828 10.1969 21.4905 12.647 21.796 13.1394Z" fill="url(#paint7_linear_2513_12518)"/>
<path d="M21.796 13.1394C20.4539 10.8144 18.5371 9.45604 9.99813 9.79833C5.98797 9.95915 4.25712 6.9842 6.73387 4.98777C9.52926 2.73426 13.7889 3.68023 15.6904 4.75275C15.2218 3.77097 14.6601 2.98233 13.9308 2.28092C12.3809 0.789827 10.525 0.0228791 8.44428 0.267565C5.70128 0.823186 3.11606 2.27521 1.19454 4.6205L1.22372 4.64404C-0.613353 6.97859 -0.284906 10.1098 1.56078 12.0853C1.6585 12.1844 4.37723 14.8622 12.219 12.4874C19.7828 10.1969 21.4905 12.647 21.796 13.1394Z" fill="white"/>
<path d="M9.92212 24.4664C11.1743 24.5687 12.3986 24.4875 13.5682 24.2469C11.4781 24.5 10.1587 24.1163 8.05909 22.236C6.38686 20.7386 5.75376 17.5093 5.32879 16.6769C4.69005 15.4257 3.42676 14.9755 2.61139 15.0096C0.901575 15.0808 -0.196675 16.7391 0.209637 18.2407C0.663433 19.9191 4.20996 23.9997 9.92212 24.4664Z" fill="url(#paint8_linear_2513_12518)"/>
<path d="M9.92212 24.4664C11.1743 24.5687 12.3986 24.4875 13.5682 24.2469C11.4781 24.5 10.1587 24.1163 8.05909 22.236C6.38686 20.7386 5.75376 17.5093 5.32879 16.6769C4.69005 15.4257 3.42676 14.9755 2.61139 15.0096C0.901575 15.0808 -0.196675 16.7391 0.209637 18.2407C0.663433 19.9191 4.20996 23.9997 9.92212 24.4664Z" fill="url(#paint9_linear_2513_12518)"/>
<path d="M29.1295 20.6697V18.2012H29.7917C30.2201 18.1759 30.4797 18.005 30.5706 17.6885V12.8276C30.5706 12.663 30.4667 12.5238 30.259 12.4098C30.1162 12.3466 29.9604 12.3149 29.7917 12.3149H29.1295V9.84647H29.7917C31.012 9.84647 31.9597 10.3528 32.6348 11.3655C32.9723 11.8845 33.1411 12.3592 33.1411 12.7896V17.7265C33.1411 18.3088 32.8814 18.9038 32.3621 19.5114C31.6741 20.2709 30.8172 20.657 29.7917 20.6697H29.1295ZM25.4102 24.4483V9.84647H28.1559V24.4483H25.4102ZM34.8352 20.6697V7.07422H37.6394V20.6697H34.8352ZM39.1973 17.7265V12.7516C39.2103 12.1314 39.5023 11.5237 40.0735 10.9288C40.7746 10.2199 41.6314 9.85911 42.644 9.84647V12.239C42.2676 12.239 42.0079 12.3972 41.8651 12.7137C41.8262 12.7896 41.8067 12.8592 41.8067 12.9225V13.8719H44.708V12.9415C44.695 12.4731 44.3575 12.239 43.6958 12.239V9.84647C44.6435 9.84647 45.4742 10.1629 46.1883 10.7959C46.8114 11.3529 47.1295 11.9984 47.1425 12.7326V16.3214H41.8067V17.7265C41.8976 18.0936 42.1832 18.2962 42.6635 18.3341V20.6697C41.4432 20.6697 40.476 20.1823 39.762 19.2076C39.3855 18.6886 39.1973 18.1949 39.1973 17.7265ZM43.6958 20.6697V18.3531C44.3965 18.3404 44.8445 18.0177 45.0391 17.3847L47.162 18.1632C46.967 18.9734 46.4739 19.6253 45.6817 20.119C45.0716 20.4861 44.4095 20.6697 43.6958 20.6697ZM48.6418 20.6697V12.7896C48.6418 12.1567 48.9339 11.5364 49.518 10.9288C50.2322 10.2072 51.1214 9.84013 52.1861 9.82746V12.3529C51.6405 12.4162 51.3419 12.663 51.2904 13.0934V20.6697H48.6418ZM53.0818 12.3529V9.82746C54.341 9.82746 55.3342 10.3148 56.0609 11.2896C56.4505 11.8212 56.6455 12.3212 56.6455 12.7896V20.6697H53.997V13.0934C53.997 12.6757 53.7569 12.4352 53.2763 12.3719C53.2113 12.3592 53.1468 12.3529 53.0818 12.3529ZM57.9693 17.7265V12.7896C57.9823 12.1946 58.2489 11.5997 58.768 11.0047C59.4171 10.2832 60.2218 9.91606 61.1825 9.90343H61.8251V12.3529H61.1825C60.8059 12.3909 60.5789 12.5681 60.5009 12.8845V17.6885C60.5009 17.8278 60.5919 17.9607 60.7739 18.0873C60.9035 18.1632 61.0529 18.2012 61.2215 18.2012H61.8251V20.6697H61.2215C60.0402 20.6697 59.1185 20.157 58.4564 19.1316C58.1318 18.6253 57.9693 18.1569 57.9693 17.7265ZM62.8573 20.6697V7.07422H65.5639L65.5444 20.6697H62.8573ZM67.1027 17.7265V12.7516C67.1153 12.1314 67.4078 11.5237 67.9789 10.9288C68.68 10.2199 69.5367 9.85911 70.5494 9.84647V12.239C70.1729 12.239 69.9133 12.3972 69.7703 12.7137C69.7313 12.7896 69.7118 12.8592 69.7118 12.9225V13.8719H72.6134V12.9415C72.6004 12.4731 72.2628 12.239 71.6007 12.239V9.84647C72.5484 9.84647 73.3795 10.1629 74.0933 10.7959C74.7164 11.3529 75.0344 11.9984 75.0474 12.7326V16.3214H69.7118V17.7265C69.8028 18.0936 70.0884 18.2962 70.569 18.3341V20.6697C69.3483 20.6697 68.381 20.1823 67.6673 19.2076C67.2908 18.6886 67.1027 18.1949 67.1027 17.7265ZM71.6007 20.6697V18.3531C72.3018 18.3404 72.7499 18.0177 72.9445 17.3847L75.0669 18.1632C74.8724 18.9734 74.3792 19.6253 73.5871 20.119C72.977 20.4861 72.3148 20.6697 71.6007 20.6697ZM76.5472 20.6697V12.7896C76.5472 12.1567 76.8393 11.5364 77.4234 10.9288C78.1375 10.2072 79.0267 9.84013 80.091 9.82746V12.3529C79.5459 12.4162 79.2473 12.663 79.1953 13.0934V20.6697H76.5472ZM80.9871 12.3529V9.82746C82.2464 9.82746 83.2392 10.3148 83.9663 11.2896C84.3559 11.8212 84.5504 12.3212 84.5504 12.7896V20.6697H81.9024V13.0934C81.9024 12.6757 81.6619 12.4352 81.1817 12.3719C81.1167 12.3592 81.0517 12.3529 80.9871 12.3529ZM85.6801 17.8214L88.0947 17.3847C88.0947 17.8025 88.3152 18.0999 88.7568 18.2771C88.9128 18.3278 89.0554 18.3594 89.1854 18.3721V20.7646C87.6791 20.7646 86.6343 20.2456 86.0502 19.2076C85.8032 18.7772 85.6801 18.3151 85.6801 17.8214ZM85.7967 12.8086C85.7967 11.6313 86.3618 10.7579 87.4911 10.1883C88.0492 9.89709 88.6012 9.75153 89.1464 9.75153V12.106C88.5102 12.1187 88.1922 12.3529 88.1922 12.8086C88.1922 13.2896 88.7893 13.7137 89.9836 14.0808C90.4251 14.22 90.9443 14.3529 91.5414 14.4795C92.4371 14.6441 93.0732 15.1315 93.4498 15.9416C93.6448 16.3593 93.7419 16.8214 93.7419 17.3278C93.7419 18.6442 93.2097 19.6127 92.145 20.2329C91.5349 20.5874 90.8403 20.7646 90.0616 20.7646V18.3721C90.5157 18.3721 90.8533 18.2265 91.0743 17.9354C91.1778 17.7961 91.2298 17.6442 91.2298 17.4797C91.2298 17.0872 90.7367 16.7455 89.75 16.4543C89.594 16.4163 89.3539 16.353 89.0294 16.2644C88.3412 16.0872 87.8676 15.9416 87.608 15.8277C86.6603 15.3593 86.0888 14.6694 85.8942 13.758C85.8292 13.4542 85.7967 13.1377 85.7967 12.8086ZM90.0226 12.106L90.0421 9.75153C91.2104 9.75153 92.1515 10.1692 92.8657 11.0047C93.3202 11.549 93.5473 12.125 93.5473 12.7326L91.1518 13.1314C91.1518 12.5618 90.8403 12.2263 90.2171 12.125C90.1396 12.1124 90.0746 12.106 90.0226 12.106ZM94.9492 20.6697V7.07422H97.7537V20.6697H94.9492ZM99.058 18.1632V17.1948C99.071 16.3847 99.4216 15.7581 100.11 15.315C100.279 15.2264 100.96 14.9796 102.155 14.5745C103.543 14.1188 104.238 13.7137 104.238 13.3593V12.9225C104.225 12.4668 103.94 12.22 103.381 12.182V9.84647C104.355 9.84647 105.173 10.1692 105.835 10.8148C106.432 11.4098 106.731 12.0554 106.731 12.7516V17.7075C106.744 18.0873 106.926 18.2898 107.276 18.3151V20.6697C106.484 20.6697 105.848 20.4671 105.367 20.062C104.861 20.4545 104.206 20.657 103.401 20.6697V18.3341C103.504 18.3341 103.602 18.3215 103.693 18.2962C104.057 18.1949 104.238 17.9544 104.238 17.5746V16.0176C103.888 16.2201 103.206 16.4606 102.194 16.7391C101.778 16.8404 101.538 16.91 101.473 16.948C101.317 17.024 101.233 17.1695 101.22 17.3847V17.6505C101.22 17.7265 101.226 17.8025 101.239 17.8784C101.317 18.1822 101.687 18.3341 102.349 18.3341V20.6697C101.479 20.6697 100.739 20.4545 100.129 20.024C99.4151 19.5177 99.058 18.8974 99.058 18.1632ZM99.1945 12.5618C99.2075 11.9162 99.4801 11.3275 100.012 10.7959C100.687 10.1629 101.473 9.84647 102.369 9.84647V12.182C101.772 12.1946 101.466 12.5997 101.453 13.3972L99.1945 12.5618ZM108.581 20.6697V7.07422H111.268V20.6697H108.581ZM112.3 20.6697V18.2012H113.001C113.079 18.2012 113.15 18.1949 113.215 18.1822C113.293 18.1569 113.358 18.1316 113.41 18.1063C113.462 18.081 113.508 18.0493 113.547 18.0113C113.585 17.9733 113.611 17.9354 113.624 17.8974C113.65 17.8594 113.67 17.8278 113.683 17.8025C113.696 17.7645 113.709 17.7328 113.722 17.7075V17.6885V12.8276C113.722 12.6757 113.624 12.5428 113.43 12.4288C113.312 12.3655 113.176 12.3276 113.02 12.3149H112.3V9.84647H113.001C114.17 9.84647 115.085 10.3465 115.747 11.3465C116.072 11.8402 116.24 12.3086 116.253 12.7516V17.7265C116.253 18.2962 116 18.8848 115.493 19.4924C114.832 20.2646 114.001 20.657 113.001 20.6697H112.3Z" fill="white"/>
<path d="M28.8522 20.779V18.3106H29.5143C29.9427 18.2852 30.2024 18.1144 30.2932 17.7979V12.937C30.2932 12.7724 30.1894 12.6332 29.9817 12.5192C29.8389 12.4559 29.6831 12.4243 29.5143 12.4243H28.8522V9.95585H29.5143C30.7346 9.95585 31.6823 10.4622 32.3574 11.4749C32.695 11.9939 32.8637 12.4686 32.8637 12.899V17.8359C32.8637 18.4182 32.6041 19.0131 32.0848 19.6207C31.3967 20.3803 30.5399 20.7664 29.5143 20.779H28.8522ZM25.1328 24.5576V9.95585H27.8785V24.5576H25.1328ZM34.5579 20.779V7.18359H37.362V20.779H34.5579ZM38.9199 17.8359V12.861C38.9329 12.2407 39.225 11.6331 39.7962 11.0382C40.4973 10.3293 41.3541 9.96848 42.3667 9.95585V12.3483C41.9902 12.3483 41.7306 12.5066 41.5878 12.823C41.5488 12.899 41.5293 12.9686 41.5293 13.0319V13.9813H44.4307V13.0509C44.4177 12.5825 44.0801 12.3483 43.4184 12.3483V9.95585C44.3661 9.95585 45.1968 10.2723 45.911 10.9052C46.5341 11.4622 46.8522 12.1078 46.8652 12.842V16.4308H41.5293V17.8359C41.6202 18.203 41.9058 18.4055 42.3862 18.4435V20.779C41.1658 20.779 40.1987 20.2916 39.4846 19.3169C39.1082 18.7979 38.9199 18.3043 38.9199 17.8359ZM43.4184 20.779V18.4625C44.1191 18.4498 44.5672 18.127 44.7618 17.4941L46.8847 18.2726C46.6897 19.0828 46.1965 19.7347 45.4044 20.2284C44.7943 20.5955 44.1321 20.779 43.4184 20.779ZM48.3645 20.779V12.899C48.3645 12.2661 48.6566 11.6458 49.2407 11.0382C49.9548 10.3166 50.844 9.94951 51.9087 9.93683V12.4622C51.3632 12.5255 51.0646 12.7724 51.013 13.2028V20.779H48.3645ZM52.8044 12.4622V9.93683C54.0637 9.93683 55.0569 10.4242 55.7836 11.3989C56.1732 11.9306 56.3682 12.4306 56.3682 12.899V20.779H53.7196V13.2028C53.7196 12.7851 53.4796 12.5446 52.999 12.4813C52.934 12.4686 52.8694 12.4622 52.8044 12.4622ZM57.692 17.8359V12.899C57.705 12.304 57.9715 11.7091 58.4906 11.1141C59.1398 10.3925 59.9445 10.0254 60.9052 10.0128H61.5478V12.4622H60.9052C60.5286 12.5002 60.3015 12.6774 60.2235 12.9939V17.7979C60.2235 17.9372 60.3145 18.07 60.4965 18.1966C60.6261 18.2726 60.7756 18.3106 60.9442 18.3106H61.5478V20.779H60.9442C59.7629 20.779 58.8412 20.2663 58.1791 19.241C57.8545 18.7347 57.692 18.2663 57.692 17.8359ZM62.58 20.779V7.18359H65.2866L65.2671 20.779H62.58ZM66.8254 17.8359V12.861C66.8379 12.2407 67.1304 11.6331 67.7016 11.0382C68.4027 10.3293 69.2594 9.96848 70.2721 9.95585V12.3483C69.8955 12.3483 69.636 12.5066 69.493 12.823C69.454 12.899 69.4345 12.9686 69.4345 13.0319V13.9813H72.3361V13.0509C72.3231 12.5825 71.9855 12.3483 71.3234 12.3483V9.95585C72.2711 9.95585 73.1022 10.2723 73.8159 10.9052C74.439 11.4622 74.7571 12.1078 74.7701 12.842V16.4308H69.4345V17.8359C69.5255 18.203 69.811 18.4055 70.2916 18.4435V20.779C69.0709 20.779 68.1037 20.2916 67.39 19.3169C67.0134 18.7979 66.8254 18.3043 66.8254 17.8359ZM71.3234 20.779V18.4625C72.0245 18.4498 72.4726 18.127 72.6671 17.4941L74.7896 18.2726C74.595 19.0828 74.1019 19.7347 73.3098 20.2284C72.6996 20.5955 72.0375 20.779 71.3234 20.779ZM76.2699 20.779V12.899C76.2699 12.2661 76.5619 11.6458 77.1461 11.0382C77.8602 10.3166 78.7494 9.94951 79.8137 9.93683V12.4622C79.2685 12.5255 78.97 12.7724 78.918 13.2028V20.779H76.2699ZM80.7098 12.4622V9.93683C81.9691 9.93683 82.9618 10.4242 83.689 11.3989C84.0785 11.9306 84.2731 12.4306 84.2731 12.899V20.779H81.625V13.2028C81.625 12.7851 81.3845 12.5446 80.9044 12.4813C80.8394 12.4686 80.7744 12.4622 80.7098 12.4622ZM85.4028 17.9308L87.8173 17.4941C87.8173 17.9118 88.0379 18.2093 88.4795 18.3865C88.6355 18.4372 88.778 18.4688 88.908 18.4815V20.8739C87.4018 20.8739 86.357 20.3549 85.7729 19.3169C85.5259 18.8866 85.4028 18.4245 85.4028 17.9308ZM85.5194 12.918C85.5194 11.7407 86.0844 10.8673 87.2137 10.2976C87.7718 10.0065 88.3239 9.8609 88.869 9.8609V12.2154C88.2329 12.2281 87.9148 12.4622 87.9148 12.918C87.9148 13.399 88.512 13.8231 89.7062 14.1902C90.1478 14.3294 90.6669 14.4623 91.2641 14.5889C92.1598 14.7535 92.7959 15.2408 93.1725 16.051C93.3675 16.4687 93.4645 16.9308 93.4645 17.4371C93.4645 18.7536 92.9324 19.722 91.8677 20.3423C91.2576 20.6967 90.5629 20.8739 89.7842 20.8739V18.4815C90.2384 18.4815 90.5759 18.3359 90.7969 18.0447C90.9005 17.9055 90.9525 17.7536 90.9525 17.589C90.9525 17.1966 90.4594 16.8548 89.4727 16.5637C89.3167 16.5257 89.0766 16.4624 88.752 16.3738C88.0639 16.1966 87.5903 16.051 87.3307 15.9371C86.383 15.4687 85.8114 14.7788 85.6169 13.8674C85.5519 13.5636 85.5194 13.2471 85.5194 12.918ZM89.7452 12.2154L89.7647 9.8609C90.933 9.8609 91.8742 10.2786 92.5883 11.1141C93.0429 11.6584 93.27 12.2344 93.27 12.842L90.8745 13.2408C90.8745 12.6711 90.5629 12.3356 89.9398 12.2344C89.8622 12.2217 89.7972 12.2154 89.7452 12.2154ZM94.6718 20.779V7.18359H97.4763V20.779H94.6718ZM98.7807 18.2726V17.3042C98.7937 16.4941 99.1442 15.8675 99.8324 15.4244C100.001 15.3358 100.683 15.0889 101.877 14.6838C103.266 14.2281 103.961 13.8231 103.961 13.4686V13.0319C103.948 12.5762 103.662 12.3294 103.104 12.2914V9.95585C104.078 9.95585 104.895 10.2786 105.558 10.9242C106.155 11.5192 106.453 12.1648 106.453 12.861V17.8169C106.466 18.1966 106.648 18.3992 106.998 18.4245V20.779C106.207 20.779 105.571 20.5765 105.09 20.1714C104.584 20.5638 103.928 20.7664 103.124 20.779V18.4435C103.227 18.4435 103.325 18.4308 103.416 18.4055C103.779 18.3043 103.961 18.0637 103.961 17.684V16.1269C103.61 16.3295 102.929 16.57 101.916 16.8485C101.501 16.9498 101.261 17.0194 101.196 17.0574C101.04 17.1333 100.956 17.2789 100.943 17.4941V17.7599C100.943 17.8359 100.949 17.9118 100.962 17.9878C101.04 18.2916 101.41 18.4435 102.072 18.4435V20.779C101.202 20.779 100.462 20.5638 99.8519 20.1334C99.1377 19.6271 98.7807 19.0068 98.7807 18.2726ZM98.9172 12.6711C98.9302 12.0256 99.2027 11.4369 99.7349 10.9052C100.41 10.2723 101.196 9.95585 102.091 9.95585V12.2914C101.494 12.304 101.189 12.7091 101.176 13.5066L98.9172 12.6711ZM108.303 20.779V7.18359H110.991V20.779H108.303ZM112.023 20.779V18.3106H112.724C112.802 18.3106 112.873 18.3043 112.938 18.2916C113.016 18.2663 113.081 18.241 113.133 18.2156C113.185 18.1903 113.23 18.1587 113.269 18.1207C113.308 18.0827 113.334 18.0447 113.347 18.0067C113.373 17.9688 113.392 17.9372 113.405 17.9118C113.418 17.8739 113.431 17.8422 113.444 17.8169V17.7979V12.937C113.444 12.7851 113.347 12.6521 113.152 12.5382C113.035 12.4749 112.899 12.4369 112.743 12.4243H112.023V9.95585H112.724C113.892 9.95585 114.808 10.4558 115.47 11.4559C115.794 11.9496 115.963 12.418 115.976 12.861V17.8359C115.976 18.4055 115.723 18.9941 115.216 19.6018C114.554 20.374 113.723 20.7664 112.724 20.779H112.023Z" fill="white"/>
</g>
<defs>
<linearGradient id="paint0_linear_2513_12518" x1="13.572" y1="8.67891" x2="7.16241" y2="18.0411" gradientUnits="userSpaceOnUse">
<stop stop-color="#AAACEB"/>
<stop offset="0.681" stop-color="#1E22BE"/>
<stop offset="1" stop-color="#1E22BE"/>
</linearGradient>
<linearGradient id="paint1_linear_2513_12518" x1="11.2166" y1="0.222656" x2="11.2166" y2="24.4693" gradientUnits="userSpaceOnUse">
<stop stop-color="white"/>
</linearGradient>
<linearGradient id="paint2_linear_2513_12518" x1="8.09874" y1="4.02939" x2="22.0123" y2="5.22507" gradientUnits="userSpaceOnUse">
<stop stop-color="#F7941E"/>
<stop offset="0.1627" stop-color="#F58F1F"/>
<stop offset="0.3547" stop-color="#EE8120"/>
<stop offset="0.5614" stop-color="#E26923"/>
<stop offset="0.7785" stop-color="#D24828"/>
<stop offset="1" stop-color="#BE1E2D"/>
</linearGradient>
<linearGradient id="paint3_linear_2513_12518" x1="16.5532" y1="3.22227" x2="14.6353" y2="7.62676" gradientUnits="userSpaceOnUse">
<stop stop-color="#AAACEB"/>
<stop offset="0.681" stop-color="#1E22BE"/>
<stop offset="1" stop-color="#1E22BE"/>
</linearGradient>
<linearGradient id="paint4_linear_2513_12518" x1="15.142" y1="0" x2="15.142" y2="9.23917" gradientUnits="userSpaceOnUse">
<stop stop-color="white"/>
</linearGradient>
<linearGradient id="paint5_linear_2513_12518" x1="14.4897" y1="-0.331263" x2="9.39134" y2="15.3548" gradientUnits="userSpaceOnUse">
<stop stop-color="#6267F9"/>
<stop offset="0.3212" stop-color="#6267F9"/>
<stop offset="0.697" stop-color="#E6E7E8"/>
<stop offset="1" stop-color="#6267F9"/>
</linearGradient>
<linearGradient id="paint6_linear_2513_12518" x1="17.7875" y1="19.9834" x2="9.17726" y2="0.281137" gradientUnits="userSpaceOnUse">
<stop stop-color="#6267F9"/>
<stop offset="0.3212" stop-color="#66A3FF"/>
<stop offset="0.697" stop-color="#73B9FF"/>
<stop offset="1" stop-color="#6267F9"/>
</linearGradient>
<linearGradient id="paint7_linear_2513_12518" x1="-5.83236" y1="1.6547" x2="9.62535" y2="13.7295" gradientUnits="userSpaceOnUse">
<stop stop-color="#00D8E2"/>
<stop offset="0.2296" stop-color="#00BCDC"/>
<stop offset="0.7218" stop-color="#0176CD"/>
<stop offset="1" stop-color="#014BC4"/>
</linearGradient>
<linearGradient id="paint8_linear_2513_12518" x1="11.0958" y1="29.1849" x2="4.29532" y2="15.8072" gradientUnits="userSpaceOnUse">
<stop stop-color="#6267F9"/>
<stop offset="0.3212" stop-color="#66A3FF"/>
<stop offset="0.697" stop-color="#73B9FF"/>
<stop offset="1" stop-color="#6267F9"/>
</linearGradient>
<linearGradient id="paint9_linear_2513_12518" x1="6.84659" y1="15.0078" x2="6.84659" y2="24.5097" gradientUnits="userSpaceOnUse">
<stop stop-color="white"/>
</linearGradient>
<clipPath id="clip0_2513_12518">
<rect width="117" height="30" fill="white"/>
</clipPath>
</defs>
</svg>
